<svg xmlns="http://www.w3.org/2000/svg" viewBox="0 0 270.09 163.11"><g fill="#023E8A" transform="translate(-14.96 -68.45)"><path d="M133,93.23c0,13.74-.23,26.58-.9,34.24-.23,2.48-1.35,3.38-4.06,3.38H103.27a4,4,0,0,1-4.28-3.6,170.07,170.07,0,0,1-2-21.4c-25.46,0-32.44,10.13-32.44,39.87v8.56c0,29.73,8.56,39.87,33.12,39.87a260.56,260.56,0,0,0,33.79-2.25,3.55,3.55,0,0,1,3.83,3.83v23.43c0,2.93-1.13,4.06-4.5,5.41-10.6,4.5-27,7-44.84,7-52.72,0-71-25.23-71-74.79V143.24c0-49.56,17.12-74.79,69.83-74.79,16.68,0,33.34,2.92,43.71,6.76,3.16,1.12,4.51,2.7,4.51,5.4Z"/><path d="M285,93.23c0,13.74-.22,26.58-.9,34.24-.22,2.48-1.35,3.38-4.05,3.38H255.31a4,4,0,0,1-4.29-3.6,164.08,164.08,0,0,1-2-18.7h-8.56v85.83c4.73.45,9.68,1.13,13.74,1.8a4,4,0,0,1,3.6,4.28v25a3.19,3.19,0,0,1-3.38,3.38H176.9a3.19,3.19,0,0,1-3.37-3.38v-25a4,4,0,0,1,3.6-4.28c3.83-.67,8.79-1.35,13.74-1.8V108.55h-8.78a167.65,167.65,0,0,1-1.81,18.7,4,4,0,0,1-4.28,3.6H151.22c-2.7,0-3.83-.9-4.05-3.38-.68-7.66-.9-20.5-.9-34.24V75.65c0-3.37,1.58-4.5,4.73-4.5H280.31c3.15,0,4.73,1.13,4.73,4.5Z"/></g></svg>